<svg width="140" height="49" viewBox="0 0 140 49" fill="none" xmlns="http://www.w3.org/2000/svg">
<path d="M10.8438 48V41.5625C12.3021 42.5625 13.9479 43.0625 15.7812 43.0625C17.9062 43.0625 19.6354 42.3958 20.9688 41.0625C22.3021 39.7083 22.9688 37.9062 22.9688 35.6562C22.9688 32.9271 21.9688 30.7083 19.9688 29C17.9896 27.2917 15.25 26.2604 11.75 25.9062V20.5625C14.0208 20.1875 15.8958 19.2292 17.375 17.6875C18.8542 16.125 19.5938 14.2812 19.5938 12.1562C19.5938 10.1354 19.0729 8.57292 18.0312 7.46875C16.9896 6.34375 15.5729 5.78125 13.7812 5.78125C9.42708 5.78125 7.25 8.69792 7.25 14.5312V48.0625H0V14.1875C0 9.89583 1.28125 6.45833 3.84375 3.875C6.42708 1.29167 9.89583 0 14.25 0C18.125 0 21.2188 1 23.5312 3C25.8646 5 27.0312 7.63542 27.0312 10.9062C27.0312 13.5938 26.2708 16 24.75 18.125C23.2292 20.25 21.25 21.7188 18.8125 22.5312V22.6875C26.5417 24.2292 30.4062 28.625 30.4062 35.875C30.4062 39.5417 29.1562 42.6146 26.6562 45.0938C24.1771 47.5729 20.8854 48.8125 16.7812 48.8125C14.5521 48.8125 12.5729 48.5417 10.8438 48ZM42.9688 4.9375V43.7188C42.9688 44.7396 42.75 45.5 42.3125 46C41.7917 46.625 41.0521 47.1771 40.0938 47.6562C39.1562 48.1354 38.3854 48.375 37.7812 48.375C37.0521 48.375 36.6875 47.9271 36.6875 47.0312V8.25C36.6875 7.375 36.9062 6.67708 37.3438 6.15625C37.8854 5.51042 38.625 4.92708 39.5625 4.40625C40.5 3.86458 41.2708 3.59375 41.875 3.59375C42.6042 3.59375 42.9688 4.04167 42.9688 4.9375ZM89.1562 48.0625H83.9062V15.6875C83.9062 12.7708 84.0104 10.7188 84.2188 9.53125H84.0312C83.6354 10.5521 83.1562 11.4896 82.5938 12.3438L59.5312 48.0625H53.0312V3.25H58.2812V34.8125C58.2812 38.1875 58.1979 40.3854 58.0312 41.4062H58.1562C58.6146 40.4896 59.1979 39.4896 59.9062 38.4062L82.4062 3.25H89.1562V48.0625ZM105.531 4.9375V43.7188C105.531 44.7396 105.312 45.5 104.875 46C104.354 46.625 103.615 47.1771 102.656 47.6562C101.719 48.1354 100.948 48.375 100.344 48.375C99.6146 48.375 99.25 47.9271 99.25 47.0312V8.25C99.25 7.375 99.4688 6.67708 99.9062 6.15625C100.448 5.51042 101.188 4.92708 102.125 4.40625C103.062 3.86458 103.833 3.59375 104.438 3.59375C105.167 3.59375 105.531 4.04167 105.531 4.9375ZM114.061 48.4492C113.357 48.4492 112.76 48.2207 112.268 47.7637C111.775 47.2949 111.529 46.7383 111.529 46.0938C111.529 45.4375 111.775 44.875 112.268 44.4062C112.76 43.9375 113.357 43.7031 114.061 43.7031C114.775 43.7031 115.379 43.9375 115.871 44.4062C116.375 44.875 116.627 45.4375 116.627 46.0938C116.627 46.7383 116.375 47.2949 115.871 47.7637C115.379 48.2207 114.775 48.4492 114.061 48.4492ZM125.996 42.0391C125.996 44.0312 125.504 45.582 124.52 46.6914C123.535 47.793 122.223 48.3438 120.582 48.3438C119.816 48.3438 119.188 48.2539 118.695 48.0742V45.4492C119.141 45.7539 119.715 45.9062 120.418 45.9062C122.277 45.9062 123.207 44.4688 123.207 41.5938V31.2578H125.996V42.0391ZM129.219 47.3945V44.5234C129.477 44.7578 129.781 44.9688 130.133 45.1562C130.492 45.3438 130.871 45.5039 131.27 45.6367C131.668 45.7617 132.066 45.8594 132.465 45.9297C132.863 46 133.23 46.0352 133.566 46.0352C134.738 46.0352 135.609 45.8398 136.18 45.4492C136.758 45.0586 137.047 44.4922 137.047 43.75C137.047 43.3516 136.949 43.0078 136.754 42.7188C136.566 42.4219 136.301 42.1523 135.957 41.9102C135.613 41.668 135.207 41.4375 134.738 41.2188C134.277 40.9922 133.781 40.7578 133.25 40.5156C132.68 40.2109 132.148 39.9023 131.656 39.5898C131.164 39.2773 130.734 38.9336 130.367 38.5586C130.008 38.1758 129.723 37.7461 129.512 37.2695C129.309 36.793 129.207 36.2344 129.207 35.5938C129.207 34.8047 129.383 34.1211 129.734 33.543C130.094 32.957 130.562 32.4766 131.141 32.1016C131.727 31.7188 132.391 31.4375 133.133 31.2578C133.875 31.0703 134.633 30.9766 135.406 30.9766C137.164 30.9766 138.445 31.1758 139.25 31.5742V34.3281C138.297 33.6406 137.07 33.2969 135.57 33.2969C135.156 33.2969 134.742 33.3359 134.328 33.4141C133.922 33.4922 133.555 33.6211 133.227 33.8008C132.906 33.9805 132.645 34.2109 132.441 34.4922C132.238 34.7734 132.137 35.1133 132.137 35.5117C132.137 35.8867 132.215 36.2109 132.371 36.4844C132.527 36.7578 132.754 37.0078 133.051 37.2344C133.355 37.4609 133.723 37.6836 134.152 37.9023C134.59 38.1133 135.094 38.3438 135.664 38.5938C136.25 38.8984 136.801 39.2188 137.316 39.5547C137.84 39.8906 138.297 40.2617 138.688 40.668C139.086 41.0742 139.398 41.5273 139.625 42.0273C139.859 42.5195 139.977 43.082 139.977 43.7148C139.977 44.5664 139.805 45.2852 139.461 45.8711C139.117 46.457 138.652 46.9336 138.066 47.3008C137.488 47.668 136.82 47.9336 136.062 48.0977C135.305 48.2617 134.504 48.3438 133.66 48.3438C133.379 48.3438 133.031 48.3203 132.617 48.2734C132.211 48.2344 131.793 48.1719 131.363 48.0859C130.934 48.0078 130.527 47.9102 130.145 47.793C129.762 47.6758 129.453 47.543 129.219 47.3945Z" fill="white"/>
</svg>